<svg xmlns="http://www.w3.org/2000/svg" xmlns:xlink="http://www.w3.org/1999/xlink" width="500" zoomAndPan="magnify" viewBox="0 0 375 374.999991" height="500" preserveAspectRatio="xMidYMid meet" version="1.0"><defs><clipPath id="b6a9526e65"><path d="M 0 107.671875 L 375 107.671875 L 375 267.421875 L 0 267.421875 Z M 0 107.671875 " clip-rule="nonzero"/></clipPath><clipPath id="e50c100cfe"><path d="M 51 117 L 164 117 L 164 267.421875 L 51 267.421875 Z M 51 117 " clip-rule="nonzero"/></clipPath><clipPath id="4d9c0948cc"><path d="M 87 116 L 331 116 L 331 267.421875 L 87 267.421875 Z M 87 116 " clip-rule="nonzero"/></clipPath></defs><rect x="-37.5" width="450" fill="#ffffff" y="-37.499999" height="449.999989" fill-opacity="1"/><rect x="-37.5" width="450" fill="#fefefe" y="-37.499999" height="449.999989" fill-opacity="1"/><g clip-path="url(#b6a9526e65)"><path fill="#364fac" d="M 0.0117188 107.671875 L 374.988281 107.671875 L 374.988281 267.421875 L 0.0117188 267.421875 Z M 0.0117188 107.671875 " fill-opacity="1" fill-rule="nonzero"/><path fill="#fefefe" d="M 163.367188 107.671875 L 374.988281 107.671875 L 374.988281 267.421875 L 341.574219 267.421875 L 342.503906 260.921875 L 332.292969 259.992188 L 325.796875 257.207031 L 323.011719 252.5625 L 323.011719 242.347656 L 328.582031 219.125 L 349 140.179688 L 352.714844 129.035156 L 358.28125 121.605469 L 362.921875 117.890625 L 372.203125 116.03125 L 374.0625 110.460938 L 331.367188 111.386719 L 316.515625 135.535156 L 305.378906 153.183594 L 291.453125 175.472656 L 277.53125 197.765625 L 263.609375 220.054688 L 256.183594 232.128906 L 254.328125 232.128906 L 250.617188 204.265625 L 239.476562 110.460938 L 191.210938 111.386719 L 186.570312 120.675781 L 182.859375 118.820312 L 173.578125 112.316406 L 163.367188 108.601562 Z M 0.0117188 107.671875 L 145.734375 107.671875 L 145.734375 108.601562 L 137.378906 111.386719 L 132.738281 112.316406 L 132.738281 110.460938 L 67.765625 111.386719 L 65.910156 116.960938 L 80.761719 117.890625 L 85.402344 120.675781 L 87.257812 123.460938 L 87.257812 132.75 L 81.6875 155.96875 L 64.054688 224.699219 L 57.558594 242.347656 L 51.058594 251.632812 L 43.632812 258.136719 L 38.066406 259.992188 L 30.640625 259.992188 L 25.070312 257.207031 L 22.285156 253.492188 L 22.285156 247.917969 L 26.925781 243.273438 L 30.640625 239.558594 L 31.566406 236.773438 L 31.566406 228.414062 L 26.925781 222.84375 L 24.144531 221.914062 L 15.789062 221.914062 L 9.292969 225.628906 L 4.652344 232.128906 L 3.722656 234.914062 L 3.722656 250.707031 L 7.4375 259.0625 L 13.933594 264.636719 L 17.644531 267.421875 L 0.0117188 267.421875 Z M 0.0117188 107.671875 " fill-opacity="1" fill-rule="nonzero"/></g><g clip-path="url(#e50c100cfe)"><path fill="#fefefe" d="M 120.671875 117.890625 L 122.527344 117.890625 L 121.601562 120.675781 L 116.960938 125.320312 L 113.246094 129.964844 L 109.535156 137.394531 L 107.679688 143.894531 L 107.679688 157.828125 L 112.320312 169.902344 L 120.671875 180.117188 L 129.953125 188.476562 L 144.804688 199.621094 L 154.085938 207.980469 L 161.511719 218.199219 L 163.367188 223.769531 L 163.367188 237.703125 L 159.65625 246.0625 L 153.15625 253.492188 L 143.875 258.136719 L 136.449219 259.992188 L 125.3125 259.992188 L 116.03125 257.207031 L 107.679688 251.632812 L 102.109375 244.203125 L 97.46875 232.128906 L 94.683594 217.269531 L 89.113281 217.269531 L 80.761719 266.496094 L 79.832031 267.421875 L 51.058594 267.421875 L 53.84375 265.566406 L 63.125 260.921875 L 73.335938 250.707031 L 79.832031 237.703125 L 86.328125 215.410156 L 103.964844 146.683594 L 109.535156 129.964844 L 115.101562 121.605469 Z M 120.671875 117.890625 " fill-opacity="1" fill-rule="nonzero"/></g><g clip-path="url(#4d9c0948cc)"><path fill="#fefefe" d="M 195.851562 116.960938 L 205.136719 118.820312 L 208.847656 122.535156 L 208.847656 133.679688 L 198.636719 174.546875 L 181.929688 238.632812 L 177.289062 247.917969 L 170.792969 255.347656 L 165.222656 259.0625 L 162.441406 258.136719 L 168.9375 252.5625 L 175.433594 243.273438 L 180.074219 231.199219 L 181.003906 225.628906 L 181.003906 212.625 L 178.21875 202.410156 L 169.863281 190.335938 L 161.511719 181.976562 L 143.875 168.972656 L 132.738281 158.757812 L 128.097656 151.324219 L 126.242188 144.824219 L 126.242188 138.324219 L 129.027344 130.894531 L 135.523438 123.460938 L 142.019531 119.746094 L 148.515625 117.890625 L 160.582031 117.890625 L 168.007812 120.675781 L 175.433594 127.175781 L 179.148438 136.464844 L 181.003906 147.609375 L 181.003906 153.183594 L 187.5 153.183594 L 192.140625 129.964844 L 194.925781 117.890625 Z M 219.984375 134.609375 L 221.84375 134.609375 L 223.699219 143.894531 L 237.621094 261.851562 L 237.621094 267.421875 L 208.847656 267.421875 L 210.703125 260.921875 L 202.351562 259.0625 L 196.78125 255.347656 L 193.996094 248.847656 L 193.996094 236.773438 L 204.207031 195.90625 Z M 328.582031 132.75 L 330.4375 132.75 L 328.582031 142.039062 L 304.449219 234.914062 L 299.808594 248.847656 L 296.09375 254.421875 L 292.382812 258.136719 L 287.742188 259.992188 L 279.386719 260.921875 L 276.605469 267.421875 L 246.902344 267.421875 L 252.472656 257.207031 L 267.320312 233.058594 L 281.246094 210.769531 L 296.09375 186.621094 L 310.945312 162.472656 L 324.867188 140.179688 Z M 90.972656 253.492188 L 95.613281 256.277344 L 104.894531 262.78125 L 114.175781 266.496094 L 114.175781 267.421875 L 87.257812 267.421875 L 90.042969 256.277344 Z M 90.972656 253.492188 " fill-opacity="1" fill-rule="nonzero"/></g></svg>